<mxfile host="Electron" agent="Mozilla/5.0 (Windows NT 10.0; Win64; x64) AppleWebKit/537.36 (KHTML, like Gecko) draw.io/26.1.1 Chrome/132.0.6834.210 Electron/34.3.3 Safari/537.36" version="26.1.1" pages="3">
  <diagram name="nw" id="j-lUeHXhNGED6lVDdhUy">
    <mxGraphModel dx="1431" dy="822" grid="1" gridSize="10" guides="1" tooltips="1" connect="1" arrows="1" fold="1" page="1" pageScale="1" pageWidth="827" pageHeight="1169" math="0" shadow="0">
      <root>
        <mxCell id="0" />
        <mxCell id="1" parent="0" />
        <mxCell id="PpBbUL5O90sny7IUp3W6-16" value="Windows" style="sketch=0;outlineConnect=0;gradientColor=none;html=1;whiteSpace=wrap;fontSize=12;fontStyle=0;shape=mxgraph.aws4.group;grIcon=mxgraph.aws4.group_availability_zone;strokeColor=#545B64;fillColor=none;verticalAlign=top;align=left;spacingLeft=30;fontColor=#545B64;dashed=1;recursiveResize=0;connectable=0;allowArrows=0;" vertex="1" parent="1">
          <mxGeometry x="40" y="40" width="440" height="400" as="geometry" />
        </mxCell>
        <mxCell id="PpBbUL5O90sny7IUp3W6-8" value="environment" parent="0" />
        <mxCell id="PpBbUL5O90sny7IUp3W6-13" value="AWS Cloud" style="points=[[0,0],[0.25,0],[0.5,0],[0.75,0],[1,0],[1,0.25],[1,0.5],[1,0.75],[1,1],[0.75,1],[0.5,1],[0.25,1],[0,1],[0,0.75],[0,0.5],[0,0.25]];outlineConnect=0;gradientColor=none;html=1;whiteSpace=wrap;fontSize=12;fontStyle=0;container=0;pointerEvents=0;collapsible=0;recursiveResize=0;shape=mxgraph.aws4.group;grIcon=mxgraph.aws4.group_aws_cloud;strokeColor=#232F3E;fillColor=none;verticalAlign=top;align=left;spacingLeft=30;fontColor=#232F3E;dashed=0;" vertex="1" parent="PpBbUL5O90sny7IUp3W6-8">
          <mxGeometry x="80" y="80" width="360" height="320" as="geometry" />
        </mxCell>
        <mxCell id="PpBbUL5O90sny7IUp3W6-9" value="instance" parent="0" />
        <mxCell id="PpBbUL5O90sny7IUp3W6-17" value="EC2 instance contents" style="points=[[0,0],[0.25,0],[0.5,0],[0.75,0],[1,0],[1,0.25],[1,0.5],[1,0.75],[1,1],[0.75,1],[0.5,1],[0.25,1],[0,1],[0,0.75],[0,0.5],[0,0.25]];outlineConnect=0;gradientColor=none;html=1;whiteSpace=wrap;fontSize=12;fontStyle=0;container=1;pointerEvents=0;collapsible=0;recursiveResize=0;shape=mxgraph.aws4.group;grIcon=mxgraph.aws4.group_ec2_instance_contents;strokeColor=#D86613;fillColor=none;verticalAlign=top;align=left;spacingLeft=30;fontColor=#D86613;dashed=0;" vertex="1" parent="PpBbUL5O90sny7IUp3W6-9">
          <mxGeometry x="120" y="160" width="240" height="200" as="geometry" />
        </mxCell>
        <mxCell id="PpBbUL5O90sny7IUp3W6-18" value="50000" style="rounded=0;whiteSpace=wrap;html=1;" vertex="1" parent="PpBbUL5O90sny7IUp3W6-9">
          <mxGeometry x="340" y="200" width="40" height="40" as="geometry" />
        </mxCell>
        <mxCell id="PpBbUL5O90sny7IUp3W6-21" style="edgeStyle=orthogonalEdgeStyle;rounded=0;orthogonalLoop=1;jettySize=auto;html=1;exitX=1;exitY=0.5;exitDx=0;exitDy=0;" edge="1" parent="PpBbUL5O90sny7IUp3W6-9" source="PpBbUL5O90sny7IUp3W6-19" target="PpBbUL5O90sny7IUp3W6-18">
          <mxGeometry relative="1" as="geometry" />
        </mxCell>
        <mxCell id="PpBbUL5O90sny7IUp3W6-19" value="server" style="rounded=0;whiteSpace=wrap;html=1;" vertex="1" parent="PpBbUL5O90sny7IUp3W6-9">
          <mxGeometry x="200" y="200" width="40" height="40" as="geometry" />
        </mxCell>
        <mxCell id="PpBbUL5O90sny7IUp3W6-23" style="edgeStyle=orthogonalEdgeStyle;rounded=0;orthogonalLoop=1;jettySize=auto;html=1;exitX=1;exitY=0.5;exitDx=0;exitDy=0;entryX=1;entryY=0.5;entryDx=0;entryDy=0;" edge="1" parent="PpBbUL5O90sny7IUp3W6-9" source="PpBbUL5O90sny7IUp3W6-22" target="PpBbUL5O90sny7IUp3W6-18">
          <mxGeometry relative="1" as="geometry" />
        </mxCell>
        <mxCell id="PpBbUL5O90sny7IUp3W6-22" value="client" style="rounded=0;whiteSpace=wrap;html=1;" vertex="1" parent="PpBbUL5O90sny7IUp3W6-9">
          <mxGeometry x="200" y="280" width="40" height="40" as="geometry" />
        </mxCell>
      </root>
    </mxGraphModel>
  </diagram>
  <diagram id="63VkTiyNjMqpD86gvccK" name="write">
    <mxGraphModel dx="2073" dy="1191" grid="1" gridSize="10" guides="1" tooltips="1" connect="1" arrows="1" fold="1" page="1" pageScale="1" pageWidth="827" pageHeight="1169" math="0" shadow="0">
      <root>
        <mxCell id="0" />
        <mxCell id="1" parent="0" />
        <mxCell id="p16dYE1ZITi7A4nwZDBB-2" value="Kernel" style="shape=umlLifeline;perimeter=lifelinePerimeter;whiteSpace=wrap;html=1;container=1;dropTarget=0;collapsible=0;recursiveResize=0;outlineConnect=0;portConstraint=eastwest;newEdgeStyle={&quot;curved&quot;:0,&quot;rounded&quot;:0};participant=umlControl;" vertex="1" parent="1">
          <mxGeometry x="200" y="40" width="40" height="560" as="geometry" />
        </mxCell>
        <mxCell id="p16dYE1ZITi7A4nwZDBB-3" value="&lt;div&gt;system call handler&lt;/div&gt;" style="html=1;points=[[0,0,0,0,5],[0,1,0,0,-5],[1,0,0,0,5],[1,0.5,0,0,0],[1,0.68,0,0,0],[1,1,0,0,-5]];perimeter=orthogonalPerimeter;outlineConnect=0;targetShapes=umlLifeline;portConstraint=eastwest;newEdgeStyle={&quot;curved&quot;:0,&quot;rounded&quot;:0};labelBackgroundColor=default;verticalAlign=top;" vertex="1" parent="p16dYE1ZITi7A4nwZDBB-2">
          <mxGeometry x="15" y="290" width="10" height="230" as="geometry" />
        </mxCell>
        <mxCell id="p16dYE1ZITi7A4nwZDBB-4" value="glibc" style="shape=umlLifeline;perimeter=lifelinePerimeter;whiteSpace=wrap;html=1;container=1;dropTarget=0;collapsible=0;recursiveResize=0;outlineConnect=0;portConstraint=eastwest;newEdgeStyle={&quot;curved&quot;:0,&quot;rounded&quot;:0};" vertex="1" parent="1">
          <mxGeometry x="120" y="40" width="40" height="560" as="geometry" />
        </mxCell>
        <mxCell id="p16dYE1ZITi7A4nwZDBB-5" value="write(2)" style="html=1;perimeter=orthogonalPerimeter;outlineConnect=0;targetShapes=umlLifeline;portConstraint=eastwest;newEdgeStyle={&quot;curved&quot;:0,&quot;rounded&quot;:0};labelBackgroundColor=default;verticalAlign=top;points=[[0,0,0,0,0],[0,0.25,0,0,0],[0,0.5,0,0,0],[0,0.75,0,0,0],[0,1,0,0,0],[0.25,0,0,0,0],[0.25,1,0,0,0],[0.5,0,0,0,0],[0.5,1,0,0,0],[0.75,0,0,0,0],[0.75,1,0,0,0],[1,0,0,0,0],[1,0.1,0,0,0],[1,0.25,0,0,0],[1,0.5,0,0,0],[1,0.75,0,0,0],[1,1,0,0,0]];" vertex="1" parent="p16dYE1ZITi7A4nwZDBB-4">
          <mxGeometry x="15" y="75" width="10" height="445" as="geometry" />
        </mxCell>
        <mxCell id="p16dYE1ZITi7A4nwZDBB-6" value="User&lt;div&gt;Land&lt;/div&gt;" style="shape=umlLifeline;perimeter=lifelinePerimeter;whiteSpace=wrap;html=1;container=1;dropTarget=0;collapsible=0;recursiveResize=0;outlineConnect=0;portConstraint=eastwest;newEdgeStyle={&quot;curved&quot;:0,&quot;rounded&quot;:0};participant=umlControl;" vertex="1" parent="1">
          <mxGeometry x="40" y="40" width="40" height="560" as="geometry" />
        </mxCell>
        <mxCell id="p16dYE1ZITi7A4nwZDBB-7" value="main" style="html=1;points=[[0,0,0,0,5],[0,1,0,0,-5],[1,0,0,0,5],[1,1,0,0,-5]];perimeter=orthogonalPerimeter;outlineConnect=0;targetShapes=umlLifeline;portConstraint=eastwest;newEdgeStyle={&quot;curved&quot;:0,&quot;rounded&quot;:0};labelBackgroundColor=default;verticalAlign=top;" vertex="1" parent="p16dYE1ZITi7A4nwZDBB-6">
          <mxGeometry x="15" y="50" width="10" height="500" as="geometry" />
        </mxCell>
        <mxCell id="p16dYE1ZITi7A4nwZDBB-8" value="&lt;div&gt;[syscall]&lt;/div&gt;" style="edgeStyle=orthogonalEdgeStyle;rounded=0;orthogonalLoop=1;jettySize=auto;html=1;entryX=0;entryY=0;entryDx=0;entryDy=5;exitX=1;exitY=0.5;exitDx=0;exitDy=0;endArrow=classic;startFill=0;endFill=1;entryPerimeter=0;exitPerimeter=0;" edge="1" parent="1" source="p16dYE1ZITi7A4nwZDBB-5" target="p16dYE1ZITi7A4nwZDBB-3">
          <mxGeometry relative="1" as="geometry" />
        </mxCell>
        <mxCell id="p16dYE1ZITi7A4nwZDBB-10" value="&lt;div&gt;check&amp;nbsp;&lt;span style=&quot;background-color: light-dark(#ffffff, var(--ge-dark-color, #121212)); color: light-dark(rgb(0, 0, 0), rgb(255, 255, 255));&quot;&gt;system call&lt;/span&gt;&lt;/div&gt;" style="edgeStyle=orthogonalEdgeStyle;rounded=0;orthogonalLoop=1;jettySize=auto;html=1;exitX=1;exitY=0.5;exitDx=0;exitDy=0;entryX=1;entryY=0.5;entryDx=0;entryDy=0;exitPerimeter=0;" edge="1" parent="1" source="p16dYE1ZITi7A4nwZDBB-3" target="p16dYE1ZITi7A4nwZDBB-18">
          <mxGeometry x="-0.568" relative="1" as="geometry">
            <mxPoint x="440" y="160" as="targetPoint" />
            <mxPoint as="offset" />
          </mxGeometry>
        </mxCell>
        <mxCell id="p16dYE1ZITi7A4nwZDBB-11" value="&lt;div&gt;[mov rdi, 1&lt;/div&gt;FD値" style="edgeStyle=orthogonalEdgeStyle;rounded=0;orthogonalLoop=1;jettySize=auto;html=1;exitX=1;exitY=0.25;exitDx=0;exitDy=0;entryX=0;entryY=0.5;entryDx=0;entryDy=0;exitPerimeter=0;" edge="1" parent="1" source="p16dYE1ZITi7A4nwZDBB-5" target="p16dYE1ZITi7A4nwZDBB-20">
          <mxGeometry x="0.5144" y="3" relative="1" as="geometry">
            <mxPoint as="offset" />
          </mxGeometry>
        </mxCell>
        <mxCell id="p16dYE1ZITi7A4nwZDBB-12" value="[mov rsi, rbx]&lt;div&gt;data&#39;s head address&lt;/div&gt;" style="edgeStyle=orthogonalEdgeStyle;rounded=0;orthogonalLoop=1;jettySize=auto;html=1;exitX=1;exitY=0.25;exitDx=0;exitDy=0;entryX=0;entryY=0.5;entryDx=0;entryDy=0;exitPerimeter=0;" edge="1" parent="1" source="p16dYE1ZITi7A4nwZDBB-5" target="p16dYE1ZITi7A4nwZDBB-22">
          <mxGeometry x="0.4525" y="7" relative="1" as="geometry">
            <mxPoint as="offset" />
          </mxGeometry>
        </mxCell>
        <mxCell id="p16dYE1ZITi7A4nwZDBB-13" value="[mov rdx, rcx]&lt;div&gt;data size&lt;/div&gt;" style="edgeStyle=orthogonalEdgeStyle;rounded=0;orthogonalLoop=1;jettySize=auto;html=1;exitX=1;exitY=0.25;exitDx=0;exitDy=0;entryX=0;entryY=0.5;entryDx=0;entryDy=0;exitPerimeter=0;" edge="1" parent="1" source="p16dYE1ZITi7A4nwZDBB-5" target="p16dYE1ZITi7A4nwZDBB-24">
          <mxGeometry x="0.5167" y="11" relative="1" as="geometry">
            <mxPoint as="offset" />
          </mxGeometry>
        </mxCell>
        <mxCell id="p16dYE1ZITi7A4nwZDBB-14" value="&lt;div&gt;async&lt;/div&gt;Flush" style="edgeStyle=orthogonalEdgeStyle;rounded=0;orthogonalLoop=1;jettySize=auto;html=1;exitX=1;exitY=0.5;exitDx=0;exitDy=0;entryX=0;entryY=0.5;entryDx=0;entryDy=0;dashed=1;" edge="1" parent="1" source="p16dYE1ZITi7A4nwZDBB-35" target="p16dYE1ZITi7A4nwZDBB-41">
          <mxGeometry x="0.004" relative="1" as="geometry">
            <mxPoint x="520" y="490" as="sourcePoint" />
            <mxPoint x="640" y="516" as="targetPoint" />
            <mxPoint as="offset" />
          </mxGeometry>
        </mxCell>
        <mxCell id="p16dYE1ZITi7A4nwZDBB-15" value="" style="html=1;verticalAlign=bottom;endArrow=block;curved=0;rounded=0;entryX=0;entryY=0;entryDx=0;entryDy=5;" edge="1" parent="1" source="p16dYE1ZITi7A4nwZDBB-6" target="p16dYE1ZITi7A4nwZDBB-5">
          <mxGeometry relative="1" as="geometry">
            <mxPoint x="130" y="225" as="sourcePoint" />
          </mxGeometry>
        </mxCell>
        <mxCell id="p16dYE1ZITi7A4nwZDBB-16" value="return" style="html=1;verticalAlign=bottom;endArrow=open;dashed=1;endSize=8;curved=0;rounded=0;exitX=0;exitY=1;exitDx=0;exitDy=-5;" edge="1" parent="1" source="p16dYE1ZITi7A4nwZDBB-5" target="p16dYE1ZITi7A4nwZDBB-6">
          <mxGeometry relative="1" as="geometry">
            <mxPoint x="130" y="295" as="targetPoint" />
          </mxGeometry>
        </mxCell>
        <mxCell id="p16dYE1ZITi7A4nwZDBB-17" value="Register" style="swimlane;fontStyle=1;align=center;verticalAlign=top;childLayout=stackLayout;horizontal=1;startSize=26;horizontalStack=0;resizeParent=1;resizeParentMax=0;resizeLast=0;collapsible=1;marginBottom=0;whiteSpace=wrap;html=1;" vertex="1" parent="1">
          <mxGeometry x="400" y="120" width="160" height="290" as="geometry" />
        </mxCell>
        <mxCell id="p16dYE1ZITi7A4nwZDBB-18" value="Register Accumulator X" style="text;strokeColor=none;fillColor=none;align=left;verticalAlign=top;spacingLeft=4;spacingRight=4;overflow=hidden;rotatable=0;points=[[0,0.5],[1,0.5]];portConstraint=eastwest;whiteSpace=wrap;html=1;" vertex="1" parent="p16dYE1ZITi7A4nwZDBB-17">
          <mxGeometry y="26" width="160" height="26" as="geometry" />
        </mxCell>
        <mxCell id="p16dYE1ZITi7A4nwZDBB-19" value="" style="line;strokeWidth=1;fillColor=none;align=left;verticalAlign=middle;spacingTop=-1;spacingLeft=3;spacingRight=3;rotatable=0;labelPosition=right;points=[];portConstraint=eastwest;strokeColor=inherit;" vertex="1" parent="p16dYE1ZITi7A4nwZDBB-17">
          <mxGeometry y="52" width="160" height="8" as="geometry" />
        </mxCell>
        <mxCell id="p16dYE1ZITi7A4nwZDBB-20" value="Register Destination Index" style="text;strokeColor=none;fillColor=none;align=left;verticalAlign=top;spacingLeft=4;spacingRight=4;overflow=hidden;rotatable=0;points=[[0,0.5],[1,0.5]];portConstraint=eastwest;whiteSpace=wrap;html=1;" vertex="1" parent="p16dYE1ZITi7A4nwZDBB-17">
          <mxGeometry y="60" width="160" height="26" as="geometry" />
        </mxCell>
        <mxCell id="p16dYE1ZITi7A4nwZDBB-21" value="" style="line;strokeWidth=1;fillColor=none;align=left;verticalAlign=middle;spacingTop=-1;spacingLeft=3;spacingRight=3;rotatable=0;labelPosition=right;points=[];portConstraint=eastwest;strokeColor=inherit;" vertex="1" parent="p16dYE1ZITi7A4nwZDBB-17">
          <mxGeometry y="86" width="160" height="8" as="geometry" />
        </mxCell>
        <mxCell id="p16dYE1ZITi7A4nwZDBB-22" value="Register Source Index" style="text;strokeColor=none;fillColor=none;align=left;verticalAlign=top;spacingLeft=4;spacingRight=4;overflow=hidden;rotatable=0;points=[[0,0.5],[1,0.5]];portConstraint=eastwest;whiteSpace=wrap;html=1;" vertex="1" parent="p16dYE1ZITi7A4nwZDBB-17">
          <mxGeometry y="94" width="160" height="26" as="geometry" />
        </mxCell>
        <mxCell id="p16dYE1ZITi7A4nwZDBB-23" value="" style="line;strokeWidth=1;fillColor=none;align=left;verticalAlign=middle;spacingTop=-1;spacingLeft=3;spacingRight=3;rotatable=0;labelPosition=right;points=[];portConstraint=eastwest;strokeColor=inherit;" vertex="1" parent="p16dYE1ZITi7A4nwZDBB-17">
          <mxGeometry y="120" width="160" height="8" as="geometry" />
        </mxCell>
        <mxCell id="p16dYE1ZITi7A4nwZDBB-24" value="Register Data X" style="text;strokeColor=none;fillColor=none;align=left;verticalAlign=top;spacingLeft=4;spacingRight=4;overflow=hidden;rotatable=0;points=[[0,0.5],[1,0.5]];portConstraint=eastwest;whiteSpace=wrap;html=1;" vertex="1" parent="p16dYE1ZITi7A4nwZDBB-17">
          <mxGeometry y="128" width="160" height="26" as="geometry" />
        </mxCell>
        <mxCell id="p16dYE1ZITi7A4nwZDBB-25" value="" style="line;strokeWidth=1;fillColor=none;align=left;verticalAlign=middle;spacingTop=-1;spacingLeft=3;spacingRight=3;rotatable=0;labelPosition=right;points=[];portConstraint=eastwest;strokeColor=inherit;" vertex="1" parent="p16dYE1ZITi7A4nwZDBB-17">
          <mxGeometry y="154" width="160" height="8" as="geometry" />
        </mxCell>
        <mxCell id="p16dYE1ZITi7A4nwZDBB-26" value="Register Counter X" style="text;strokeColor=none;fillColor=none;align=left;verticalAlign=top;spacingLeft=4;spacingRight=4;overflow=hidden;rotatable=0;points=[[0,0.5],[1,0.5]];portConstraint=eastwest;whiteSpace=wrap;html=1;" vertex="1" parent="p16dYE1ZITi7A4nwZDBB-17">
          <mxGeometry y="162" width="160" height="26" as="geometry" />
        </mxCell>
        <mxCell id="p16dYE1ZITi7A4nwZDBB-27" value="" style="line;strokeWidth=1;fillColor=none;align=left;verticalAlign=middle;spacingTop=-1;spacingLeft=3;spacingRight=3;rotatable=0;labelPosition=right;points=[];portConstraint=eastwest;strokeColor=inherit;" vertex="1" parent="p16dYE1ZITi7A4nwZDBB-17">
          <mxGeometry y="188" width="160" height="8" as="geometry" />
        </mxCell>
        <mxCell id="p16dYE1ZITi7A4nwZDBB-28" value="general Register 8" style="text;strokeColor=none;fillColor=none;align=left;verticalAlign=top;spacingLeft=4;spacingRight=4;overflow=hidden;rotatable=0;points=[[0,0.5],[1,0.5]];portConstraint=eastwest;whiteSpace=wrap;html=1;" vertex="1" parent="p16dYE1ZITi7A4nwZDBB-17">
          <mxGeometry y="196" width="160" height="26" as="geometry" />
        </mxCell>
        <mxCell id="p16dYE1ZITi7A4nwZDBB-29" value="" style="line;strokeWidth=1;fillColor=none;align=left;verticalAlign=middle;spacingTop=-1;spacingLeft=3;spacingRight=3;rotatable=0;labelPosition=right;points=[];portConstraint=eastwest;strokeColor=inherit;" vertex="1" parent="p16dYE1ZITi7A4nwZDBB-17">
          <mxGeometry y="222" width="160" height="8" as="geometry" />
        </mxCell>
        <mxCell id="p16dYE1ZITi7A4nwZDBB-30" value="general Register 9" style="text;strokeColor=none;fillColor=none;align=left;verticalAlign=top;spacingLeft=4;spacingRight=4;overflow=hidden;rotatable=0;points=[[0,0.5],[1,0.5]];portConstraint=eastwest;whiteSpace=wrap;html=1;" vertex="1" parent="p16dYE1ZITi7A4nwZDBB-17">
          <mxGeometry y="230" width="160" height="26" as="geometry" />
        </mxCell>
        <mxCell id="p16dYE1ZITi7A4nwZDBB-31" value="" style="line;strokeWidth=1;fillColor=none;align=left;verticalAlign=middle;spacingTop=-1;spacingLeft=3;spacingRight=3;rotatable=0;labelPosition=right;points=[];portConstraint=eastwest;strokeColor=inherit;" vertex="1" parent="p16dYE1ZITi7A4nwZDBB-17">
          <mxGeometry y="256" width="160" height="8" as="geometry" />
        </mxCell>
        <mxCell id="p16dYE1ZITi7A4nwZDBB-32" value="general Register 10" style="text;strokeColor=none;fillColor=none;align=left;verticalAlign=top;spacingLeft=4;spacingRight=4;overflow=hidden;rotatable=0;points=[[0,0.5],[1,0.5]];portConstraint=eastwest;whiteSpace=wrap;html=1;" vertex="1" parent="p16dYE1ZITi7A4nwZDBB-17">
          <mxGeometry y="264" width="160" height="26" as="geometry" />
        </mxCell>
        <mxCell id="p16dYE1ZITi7A4nwZDBB-33" value="&lt;div&gt;[mov rax, 1]&lt;/div&gt;&lt;div&gt;system call number&lt;/div&gt;" style="edgeStyle=orthogonalEdgeStyle;rounded=0;orthogonalLoop=1;jettySize=auto;html=1;curved=0;exitX=1;exitY=0.1;exitDx=0;exitDy=0;entryX=0;entryY=0.5;entryDx=0;entryDy=0;endArrow=classic;startFill=0;endFill=1;exitPerimeter=0;" edge="1" parent="1" source="p16dYE1ZITi7A4nwZDBB-5" target="p16dYE1ZITi7A4nwZDBB-18">
          <mxGeometry x="0.4521" y="-1" relative="1" as="geometry">
            <mxPoint as="offset" />
          </mxGeometry>
        </mxCell>
        <mxCell id="p16dYE1ZITi7A4nwZDBB-34" value="Page Cache(memory)" style="swimlane;fontStyle=1;align=center;verticalAlign=top;childLayout=stackLayout;horizontal=1;startSize=26;horizontalStack=0;resizeParent=1;resizeParentMax=0;resizeLast=0;collapsible=1;marginBottom=0;whiteSpace=wrap;html=1;" vertex="1" parent="1">
          <mxGeometry x="400" y="480" width="160" height="86" as="geometry" />
        </mxCell>
        <mxCell id="p16dYE1ZITi7A4nwZDBB-35" value="0x00..." style="text;strokeColor=none;fillColor=none;align=left;verticalAlign=top;spacingLeft=4;spacingRight=4;overflow=hidden;rotatable=0;points=[[0,0.5],[1,0.5]];portConstraint=eastwest;whiteSpace=wrap;html=1;" vertex="1" parent="p16dYE1ZITi7A4nwZDBB-34">
          <mxGeometry y="26" width="160" height="26" as="geometry" />
        </mxCell>
        <mxCell id="p16dYE1ZITi7A4nwZDBB-36" value="" style="line;strokeWidth=1;fillColor=none;align=left;verticalAlign=middle;spacingTop=-1;spacingLeft=3;spacingRight=3;rotatable=0;labelPosition=right;points=[];portConstraint=eastwest;strokeColor=inherit;" vertex="1" parent="p16dYE1ZITi7A4nwZDBB-34">
          <mxGeometry y="52" width="160" height="8" as="geometry" />
        </mxCell>
        <mxCell id="p16dYE1ZITi7A4nwZDBB-37" value="0x01..." style="text;strokeColor=none;fillColor=none;align=left;verticalAlign=top;spacingLeft=4;spacingRight=4;overflow=hidden;rotatable=0;points=[[0,0.5],[1,0.5]];portConstraint=eastwest;whiteSpace=wrap;html=1;" vertex="1" parent="p16dYE1ZITi7A4nwZDBB-34">
          <mxGeometry y="60" width="160" height="26" as="geometry" />
        </mxCell>
        <mxCell id="p16dYE1ZITi7A4nwZDBB-38" value="buffered IO" style="edgeStyle=orthogonalEdgeStyle;rounded=0;orthogonalLoop=1;jettySize=auto;html=1;curved=0;exitX=1;exitY=0.68;exitDx=0;exitDy=0;exitPerimeter=0;entryX=0;entryY=0.5;entryDx=0;entryDy=0;" edge="1" parent="1" source="p16dYE1ZITi7A4nwZDBB-3" target="p16dYE1ZITi7A4nwZDBB-35">
          <mxGeometry x="0.5183" relative="1" as="geometry">
            <Array as="points">
              <mxPoint x="310" y="486" />
              <mxPoint x="310" y="519" />
            </Array>
            <mxPoint as="offset" />
          </mxGeometry>
        </mxCell>
        <mxCell id="p16dYE1ZITi7A4nwZDBB-39" value="return" style="html=1;verticalAlign=bottom;endArrow=open;dashed=1;endSize=8;curved=0;rounded=0;exitX=0;exitY=1;exitDx=0;exitDy=-5;exitPerimeter=0;entryX=1;entryY=0.99;entryDx=0;entryDy=0;entryPerimeter=0;" edge="1" parent="1" source="p16dYE1ZITi7A4nwZDBB-3" target="p16dYE1ZITi7A4nwZDBB-5">
          <mxGeometry relative="1" as="geometry">
            <mxPoint x="70" y="365" as="targetPoint" />
            <mxPoint x="130" y="365" as="sourcePoint" />
          </mxGeometry>
        </mxCell>
        <mxCell id="p16dYE1ZITi7A4nwZDBB-40" value="Device(storage)" style="swimlane;fontStyle=1;align=center;verticalAlign=top;childLayout=stackLayout;horizontal=1;startSize=26;horizontalStack=0;resizeParent=1;resizeParentMax=0;resizeLast=0;collapsible=1;marginBottom=0;whiteSpace=wrap;html=1;" vertex="1" parent="1">
          <mxGeometry x="640" y="560" width="160" height="86" as="geometry" />
        </mxCell>
        <mxCell id="p16dYE1ZITi7A4nwZDBB-41" value="0x0a..." style="text;strokeColor=none;fillColor=none;align=left;verticalAlign=top;spacingLeft=4;spacingRight=4;overflow=hidden;rotatable=0;points=[[0,0.5],[1,0.5]];portConstraint=eastwest;whiteSpace=wrap;html=1;" vertex="1" parent="p16dYE1ZITi7A4nwZDBB-40">
          <mxGeometry y="26" width="160" height="26" as="geometry" />
        </mxCell>
        <mxCell id="p16dYE1ZITi7A4nwZDBB-42" value="" style="line;strokeWidth=1;fillColor=none;align=left;verticalAlign=middle;spacingTop=-1;spacingLeft=3;spacingRight=3;rotatable=0;labelPosition=right;points=[];portConstraint=eastwest;strokeColor=inherit;" vertex="1" parent="p16dYE1ZITi7A4nwZDBB-40">
          <mxGeometry y="52" width="160" height="8" as="geometry" />
        </mxCell>
        <mxCell id="p16dYE1ZITi7A4nwZDBB-43" value="0x0a..." style="text;strokeColor=none;fillColor=none;align=left;verticalAlign=top;spacingLeft=4;spacingRight=4;overflow=hidden;rotatable=0;points=[[0,0.5],[1,0.5]];portConstraint=eastwest;whiteSpace=wrap;html=1;" vertex="1" parent="p16dYE1ZITi7A4nwZDBB-40">
          <mxGeometry y="60" width="160" height="26" as="geometry" />
        </mxCell>
        <mxCell id="p16dYE1ZITi7A4nwZDBB-44" value="direct IO" style="edgeStyle=orthogonalEdgeStyle;rounded=0;orthogonalLoop=1;jettySize=auto;html=1;curved=0;exitX=1;exitY=0.68;exitDx=0;exitDy=0;exitPerimeter=0;" edge="1" parent="1" source="p16dYE1ZITi7A4nwZDBB-3" target="p16dYE1ZITi7A4nwZDBB-43">
          <mxGeometry relative="1" as="geometry">
            <Array as="points">
              <mxPoint x="310" y="486" />
              <mxPoint x="310" y="633" />
            </Array>
          </mxGeometry>
        </mxCell>
      </root>
    </mxGraphModel>
  </diagram>
  <diagram id="neRu4_CgZ7D1AWoXlzDn" name="epoll">
    <mxGraphModel dx="1019" dy="1051" grid="1" gridSize="10" guides="1" tooltips="1" connect="1" arrows="1" fold="1" page="1" pageScale="1" pageWidth="827" pageHeight="1169" math="0" shadow="0">
      <root>
        <mxCell id="0" />
        <mxCell id="1" parent="0" />
        <mxCell id="JsNz_HG-KBg06sbnmyq4-110" value="無限ループ" style="shape=umlFrame;whiteSpace=wrap;html=1;pointerEvents=0;width=80;height=15;" parent="1" vertex="1">
          <mxGeometry x="240" y="660" width="260" height="430" as="geometry" />
        </mxCell>
        <mxCell id="JsNz_HG-KBg06sbnmyq4-21" value="main" style="shape=umlLifeline;perimeter=lifelinePerimeter;whiteSpace=wrap;html=1;container=1;dropTarget=0;collapsible=0;recursiveResize=0;outlineConnect=0;portConstraint=eastwest;newEdgeStyle={&quot;curved&quot;:0,&quot;rounded&quot;:0};participant=umlControl;" parent="1" vertex="1">
          <mxGeometry x="40" y="80" width="40" height="1080" as="geometry" />
        </mxCell>
        <mxCell id="JsNz_HG-KBg06sbnmyq4-22" value="" style="html=1;points=[[0,0,0,0,5],[0,1,0,0,-5],[1,0,0,0,5],[1,1,0,0,-5]];perimeter=orthogonalPerimeter;outlineConnect=0;targetShapes=umlLifeline;portConstraint=eastwest;newEdgeStyle={&quot;curved&quot;:0,&quot;rounded&quot;:0};" parent="JsNz_HG-KBg06sbnmyq4-21" vertex="1">
          <mxGeometry x="10" y="80" width="20" height="990" as="geometry" />
        </mxCell>
        <mxCell id="JsNz_HG-KBg06sbnmyq4-27" value="Event&lt;div&gt;Handler&lt;/div&gt;" style="shape=umlLifeline;perimeter=lifelinePerimeter;whiteSpace=wrap;html=1;container=1;dropTarget=0;collapsible=0;recursiveResize=0;outlineConnect=0;portConstraint=eastwest;newEdgeStyle={&quot;curved&quot;:0,&quot;rounded&quot;:0};" parent="1" vertex="1">
          <mxGeometry x="320" y="80" width="80" height="1080" as="geometry" />
        </mxCell>
        <mxCell id="JsNz_HG-KBg06sbnmyq4-30" value="Constructor" style="html=1;points=[[0,0,0,0,5],[0,1,0,0,-5],[1,0,0,0,5],[1,1,0,0,-5]];perimeter=orthogonalPerimeter;outlineConnect=0;targetShapes=umlLifeline;portConstraint=eastwest;newEdgeStyle={&quot;curved&quot;:0,&quot;rounded&quot;:0};labelBackgroundColor=default;verticalAlign=top;" parent="JsNz_HG-KBg06sbnmyq4-27" vertex="1">
          <mxGeometry x="35" y="80" width="10" height="120" as="geometry" />
        </mxCell>
        <mxCell id="JsNz_HG-KBg06sbnmyq4-89" value="CreateTrigger" style="html=1;points=[[0,0,0,0,5],[0,1,0,0,-5],[1,0,0,0,5],[1,1,0,0,-5]];perimeter=orthogonalPerimeter;outlineConnect=0;targetShapes=umlLifeline;portConstraint=eastwest;newEdgeStyle={&quot;curved&quot;:0,&quot;rounded&quot;:0};labelBackgroundColor=default;verticalAlign=top;" parent="JsNz_HG-KBg06sbnmyq4-27" vertex="1">
          <mxGeometry x="35" y="465" width="10" height="65" as="geometry" />
        </mxCell>
        <mxCell id="JsNz_HG-KBg06sbnmyq4-111" value="Run" style="html=1;points=[[0,0,0,0,5],[0,1,0,0,-5],[1,0,0,0,5],[1,1,0,0,-5]];perimeter=orthogonalPerimeter;outlineConnect=0;targetShapes=umlLifeline;portConstraint=eastwest;newEdgeStyle={&quot;curved&quot;:0,&quot;rounded&quot;:0};labelBackgroundColor=default;verticalAlign=top;" parent="JsNz_HG-KBg06sbnmyq4-27" vertex="1">
          <mxGeometry x="35" y="560" width="10" height="480" as="geometry" />
        </mxCell>
        <mxCell id="JsNz_HG-KBg06sbnmyq4-120" value="" style="html=1;points=[[0,0,0,0,5],[0,1,0,0,-5],[1,0,0,0,5],[1,1,0,0,-5]];perimeter=orthogonalPerimeter;outlineConnect=0;targetShapes=umlLifeline;portConstraint=eastwest;newEdgeStyle={&quot;curved&quot;:0,&quot;rounded&quot;:0};labelBackgroundColor=default;verticalAlign=top;" parent="JsNz_HG-KBg06sbnmyq4-27" vertex="1">
          <mxGeometry x="45" y="700" width="10" height="40" as="geometry" />
        </mxCell>
        <mxCell id="JsNz_HG-KBg06sbnmyq4-57" value="&lt;div&gt;network::ipv4&lt;/div&gt;Server" style="shape=umlLifeline;perimeter=lifelinePerimeter;whiteSpace=wrap;html=1;container=1;dropTarget=0;collapsible=0;recursiveResize=0;outlineConnect=0;portConstraint=eastwest;newEdgeStyle={&quot;curved&quot;:0,&quot;rounded&quot;:0};" parent="1" vertex="1">
          <mxGeometry x="160" y="80" width="80" height="1080" as="geometry" />
        </mxCell>
        <mxCell id="JsNz_HG-KBg06sbnmyq4-24" value="Constructor" style="html=1;points=[[0,0,0,0,5],[0,1,0,0,-5],[1,0,0,0,5],[1,1,0,0,-5]];perimeter=orthogonalPerimeter;outlineConnect=0;targetShapes=umlLifeline;portConstraint=eastwest;newEdgeStyle={&quot;curved&quot;:0,&quot;rounded&quot;:0};verticalAlign=top;labelBackgroundColor=default;" parent="JsNz_HG-KBg06sbnmyq4-57" vertex="1">
          <mxGeometry x="35" y="240" width="10" height="40" as="geometry" />
        </mxCell>
        <mxCell id="JsNz_HG-KBg06sbnmyq4-60" value="Establish" style="html=1;points=[[0,0,0,0,5],[0,1,0,0,-5],[1,0,0,0,5],[1,1,0,0,-5]];perimeter=orthogonalPerimeter;outlineConnect=0;targetShapes=umlLifeline;portConstraint=eastwest;newEdgeStyle={&quot;curved&quot;:0,&quot;rounded&quot;:0};verticalAlign=top;labelBackgroundColor=default;" parent="JsNz_HG-KBg06sbnmyq4-57" vertex="1">
          <mxGeometry x="35" y="320" width="10" height="80" as="geometry" />
        </mxCell>
        <mxCell id="JsNz_HG-KBg06sbnmyq4-64" value="Start" style="html=1;points=[[0,0,0,0,5],[0,1,0,0,-5],[1,0,0,0,5],[1,1,0,0,-5]];perimeter=orthogonalPerimeter;outlineConnect=0;targetShapes=umlLifeline;portConstraint=eastwest;newEdgeStyle={&quot;curved&quot;:0,&quot;rounded&quot;:0};verticalAlign=top;labelBackgroundColor=default;" parent="JsNz_HG-KBg06sbnmyq4-57" vertex="1">
          <mxGeometry x="35" y="440" width="10" height="630" as="geometry" />
        </mxCell>
        <mxCell id="JsNz_HG-KBg06sbnmyq4-31" value="Linux" style="shape=umlLifeline;perimeter=lifelinePerimeter;whiteSpace=wrap;html=1;container=1;dropTarget=0;collapsible=0;recursiveResize=0;outlineConnect=0;portConstraint=eastwest;newEdgeStyle={&quot;curved&quot;:0,&quot;rounded&quot;:0};" parent="1" vertex="1">
          <mxGeometry x="480" y="80" width="80" height="1080" as="geometry" />
        </mxCell>
        <mxCell id="JsNz_HG-KBg06sbnmyq4-34" value="epoll_create1" style="html=1;points=[[0,0,0,0,5],[0,1,0,0,-5],[1,0,0,0,5],[1,1,0,0,-5]];perimeter=orthogonalPerimeter;outlineConnect=0;targetShapes=umlLifeline;portConstraint=eastwest;newEdgeStyle={&quot;curved&quot;:0,&quot;rounded&quot;:0};labelBackgroundColor=default;verticalAlign=top;" parent="JsNz_HG-KBg06sbnmyq4-31" vertex="1">
          <mxGeometry x="35" y="120" width="10" height="40" as="geometry" />
        </mxCell>
        <mxCell id="JsNz_HG-KBg06sbnmyq4-93" value="epoll_ctl" style="html=1;points=[[0,0,0,0,5],[0,1,0,0,-5],[1,0,0,0,5],[1,1,0,0,-5]];perimeter=orthogonalPerimeter;outlineConnect=0;targetShapes=umlLifeline;portConstraint=eastwest;newEdgeStyle={&quot;curved&quot;:0,&quot;rounded&quot;:0};labelBackgroundColor=default;verticalAlign=top;" parent="JsNz_HG-KBg06sbnmyq4-31" vertex="1">
          <mxGeometry x="35" y="480" width="10" height="40" as="geometry" />
        </mxCell>
        <mxCell id="JsNz_HG-KBg06sbnmyq4-97" value="socket" style="html=1;points=[[0,0,0,0,5],[0,1,0,0,-5],[1,0,0,0,5],[1,1,0,0,-5]];perimeter=orthogonalPerimeter;outlineConnect=0;targetShapes=umlLifeline;portConstraint=eastwest;newEdgeStyle={&quot;curved&quot;:0,&quot;rounded&quot;:0};labelBackgroundColor=default;verticalAlign=top;" parent="JsNz_HG-KBg06sbnmyq4-31" vertex="1">
          <mxGeometry x="35" y="340" width="10" height="40" as="geometry" />
        </mxCell>
        <mxCell id="JsNz_HG-KBg06sbnmyq4-114" value="epoll_wait" style="html=1;points=[[0,0,0,0,5],[0,1,0,0,-5],[1,0,0,0,5],[1,1,0,0,-5]];perimeter=orthogonalPerimeter;outlineConnect=0;targetShapes=umlLifeline;portConstraint=eastwest;newEdgeStyle={&quot;curved&quot;:0,&quot;rounded&quot;:0};labelBackgroundColor=default;verticalAlign=top;" parent="JsNz_HG-KBg06sbnmyq4-31" vertex="1">
          <mxGeometry x="35" y="600" width="10" height="30" as="geometry" />
        </mxCell>
        <mxCell id="JsNz_HG-KBg06sbnmyq4-2" value="File Descriptor" style="shape=table;startSize=30;container=1;collapsible=0;childLayout=tableLayout;fixedRows=1;rowLines=0;fontStyle=0;strokeColor=default;fontSize=16;" parent="1" vertex="1">
          <mxGeometry x="640" y="80" width="160" height="210" as="geometry" />
        </mxCell>
        <mxCell id="JsNz_HG-KBg06sbnmyq4-3" value="" style="shape=tableRow;horizontal=0;startSize=0;swimlaneHead=0;swimlaneBody=0;top=0;left=0;bottom=0;right=0;collapsible=0;dropTarget=0;fillColor=none;points=[[0,0.5],[1,0.5]];portConstraint=eastwest;strokeColor=inherit;fontSize=16;" parent="JsNz_HG-KBg06sbnmyq4-2" vertex="1">
          <mxGeometry y="30" width="160" height="30" as="geometry" />
        </mxCell>
        <mxCell id="JsNz_HG-KBg06sbnmyq4-4" value="0" style="shape=partialRectangle;html=1;whiteSpace=wrap;connectable=0;fillColor=none;top=0;left=0;bottom=0;right=0;overflow=hidden;pointerEvents=1;strokeColor=inherit;fontSize=16;" parent="JsNz_HG-KBg06sbnmyq4-3" vertex="1">
          <mxGeometry width="40" height="30" as="geometry">
            <mxRectangle width="40" height="30" as="alternateBounds" />
          </mxGeometry>
        </mxCell>
        <mxCell id="JsNz_HG-KBg06sbnmyq4-5" value="stdin" style="shape=partialRectangle;html=1;whiteSpace=wrap;connectable=0;fillColor=none;top=0;left=0;bottom=0;right=0;align=left;spacingLeft=6;overflow=hidden;strokeColor=inherit;fontSize=16;" parent="JsNz_HG-KBg06sbnmyq4-3" vertex="1">
          <mxGeometry x="40" width="120" height="30" as="geometry">
            <mxRectangle width="120" height="30" as="alternateBounds" />
          </mxGeometry>
        </mxCell>
        <mxCell id="JsNz_HG-KBg06sbnmyq4-6" value="" style="shape=tableRow;horizontal=0;startSize=0;swimlaneHead=0;swimlaneBody=0;top=0;left=0;bottom=0;right=0;collapsible=0;dropTarget=0;fillColor=none;points=[[0,0.5],[1,0.5]];portConstraint=eastwest;strokeColor=inherit;fontSize=16;" parent="JsNz_HG-KBg06sbnmyq4-2" vertex="1">
          <mxGeometry y="60" width="160" height="30" as="geometry" />
        </mxCell>
        <mxCell id="JsNz_HG-KBg06sbnmyq4-7" value="1" style="shape=partialRectangle;html=1;whiteSpace=wrap;connectable=0;fillColor=none;top=0;left=0;bottom=0;right=0;overflow=hidden;strokeColor=inherit;fontSize=16;" parent="JsNz_HG-KBg06sbnmyq4-6" vertex="1">
          <mxGeometry width="40" height="30" as="geometry">
            <mxRectangle width="40" height="30" as="alternateBounds" />
          </mxGeometry>
        </mxCell>
        <mxCell id="JsNz_HG-KBg06sbnmyq4-8" value="stdout" style="shape=partialRectangle;html=1;whiteSpace=wrap;connectable=0;fillColor=none;top=0;left=0;bottom=0;right=0;align=left;spacingLeft=6;overflow=hidden;strokeColor=inherit;fontSize=16;" parent="JsNz_HG-KBg06sbnmyq4-6" vertex="1">
          <mxGeometry x="40" width="120" height="30" as="geometry">
            <mxRectangle width="120" height="30" as="alternateBounds" />
          </mxGeometry>
        </mxCell>
        <mxCell id="JsNz_HG-KBg06sbnmyq4-9" value="" style="shape=tableRow;horizontal=0;startSize=0;swimlaneHead=0;swimlaneBody=0;top=0;left=0;bottom=0;right=0;collapsible=0;dropTarget=0;fillColor=none;points=[[0,0.5],[1,0.5]];portConstraint=eastwest;strokeColor=inherit;fontSize=16;" parent="JsNz_HG-KBg06sbnmyq4-2" vertex="1">
          <mxGeometry y="90" width="160" height="30" as="geometry" />
        </mxCell>
        <mxCell id="JsNz_HG-KBg06sbnmyq4-10" value="2" style="shape=partialRectangle;html=1;whiteSpace=wrap;connectable=0;fillColor=none;top=0;left=0;bottom=0;right=0;overflow=hidden;strokeColor=inherit;fontSize=16;" parent="JsNz_HG-KBg06sbnmyq4-9" vertex="1">
          <mxGeometry width="40" height="30" as="geometry">
            <mxRectangle width="40" height="30" as="alternateBounds" />
          </mxGeometry>
        </mxCell>
        <mxCell id="JsNz_HG-KBg06sbnmyq4-11" value="stderr" style="shape=partialRectangle;html=1;whiteSpace=wrap;connectable=0;fillColor=none;top=0;left=0;bottom=0;right=0;align=left;spacingLeft=6;overflow=hidden;strokeColor=inherit;fontSize=16;" parent="JsNz_HG-KBg06sbnmyq4-9" vertex="1">
          <mxGeometry x="40" width="120" height="30" as="geometry">
            <mxRectangle width="120" height="30" as="alternateBounds" />
          </mxGeometry>
        </mxCell>
        <mxCell id="JsNz_HG-KBg06sbnmyq4-12" value="" style="shape=tableRow;horizontal=0;startSize=0;swimlaneHead=0;swimlaneBody=0;top=0;left=0;bottom=0;right=0;collapsible=0;dropTarget=0;fillColor=none;points=[[0,0.5],[1,0.5]];portConstraint=eastwest;strokeColor=inherit;fontSize=16;" parent="JsNz_HG-KBg06sbnmyq4-2" vertex="1">
          <mxGeometry y="120" width="160" height="30" as="geometry" />
        </mxCell>
        <mxCell id="JsNz_HG-KBg06sbnmyq4-13" value="3" style="shape=partialRectangle;html=1;whiteSpace=wrap;connectable=0;fillColor=none;top=0;left=0;bottom=0;right=0;overflow=hidden;strokeColor=inherit;fontSize=16;" parent="JsNz_HG-KBg06sbnmyq4-12" vertex="1">
          <mxGeometry width="40" height="30" as="geometry">
            <mxRectangle width="40" height="30" as="alternateBounds" />
          </mxGeometry>
        </mxCell>
        <mxCell id="JsNz_HG-KBg06sbnmyq4-14" value="epoll" style="shape=partialRectangle;html=1;whiteSpace=wrap;connectable=0;fillColor=none;top=0;left=0;bottom=0;right=0;align=left;spacingLeft=6;overflow=hidden;strokeColor=inherit;fontSize=16;" parent="JsNz_HG-KBg06sbnmyq4-12" vertex="1">
          <mxGeometry x="40" width="120" height="30" as="geometry">
            <mxRectangle width="120" height="30" as="alternateBounds" />
          </mxGeometry>
        </mxCell>
        <mxCell id="JsNz_HG-KBg06sbnmyq4-15" value="" style="shape=tableRow;horizontal=0;startSize=0;swimlaneHead=0;swimlaneBody=0;top=0;left=0;bottom=0;right=0;collapsible=0;dropTarget=0;fillColor=none;points=[[0,0.5],[1,0.5]];portConstraint=eastwest;strokeColor=inherit;fontSize=16;" parent="JsNz_HG-KBg06sbnmyq4-2" vertex="1">
          <mxGeometry y="150" width="160" height="30" as="geometry" />
        </mxCell>
        <mxCell id="JsNz_HG-KBg06sbnmyq4-16" value="4" style="shape=partialRectangle;html=1;whiteSpace=wrap;connectable=0;fillColor=none;top=0;left=0;bottom=0;right=0;overflow=hidden;strokeColor=inherit;fontSize=16;" parent="JsNz_HG-KBg06sbnmyq4-15" vertex="1">
          <mxGeometry width="40" height="30" as="geometry">
            <mxRectangle width="40" height="30" as="alternateBounds" />
          </mxGeometry>
        </mxCell>
        <mxCell id="JsNz_HG-KBg06sbnmyq4-17" value="server" style="shape=partialRectangle;html=1;whiteSpace=wrap;connectable=0;fillColor=none;top=0;left=0;bottom=0;right=0;align=left;spacingLeft=6;overflow=hidden;strokeColor=inherit;fontSize=16;" parent="JsNz_HG-KBg06sbnmyq4-15" vertex="1">
          <mxGeometry x="40" width="120" height="30" as="geometry">
            <mxRectangle width="120" height="30" as="alternateBounds" />
          </mxGeometry>
        </mxCell>
        <mxCell id="JsNz_HG-KBg06sbnmyq4-18" value="" style="shape=tableRow;horizontal=0;startSize=0;swimlaneHead=0;swimlaneBody=0;top=0;left=0;bottom=0;right=0;collapsible=0;dropTarget=0;fillColor=none;points=[[0,0.5],[1,0.5]];portConstraint=eastwest;strokeColor=inherit;fontSize=16;" parent="JsNz_HG-KBg06sbnmyq4-2" vertex="1">
          <mxGeometry y="180" width="160" height="30" as="geometry" />
        </mxCell>
        <mxCell id="JsNz_HG-KBg06sbnmyq4-19" value="5~" style="shape=partialRectangle;html=1;whiteSpace=wrap;connectable=0;fillColor=none;top=0;left=0;bottom=0;right=0;overflow=hidden;strokeColor=inherit;fontSize=16;" parent="JsNz_HG-KBg06sbnmyq4-18" vertex="1">
          <mxGeometry width="40" height="30" as="geometry">
            <mxRectangle width="40" height="30" as="alternateBounds" />
          </mxGeometry>
        </mxCell>
        <mxCell id="JsNz_HG-KBg06sbnmyq4-20" value="clients" style="shape=partialRectangle;html=1;whiteSpace=wrap;connectable=0;fillColor=none;top=0;left=0;bottom=0;right=0;align=left;spacingLeft=6;overflow=hidden;strokeColor=inherit;fontSize=16;" parent="JsNz_HG-KBg06sbnmyq4-18" vertex="1">
          <mxGeometry x="40" width="120" height="30" as="geometry">
            <mxRectangle width="120" height="30" as="alternateBounds" />
          </mxGeometry>
        </mxCell>
        <mxCell id="JsNz_HG-KBg06sbnmyq4-25" value="" style="html=1;verticalAlign=bottom;endArrow=block;curved=0;rounded=0;entryX=0;entryY=0;entryDx=0;entryDy=5;" parent="1" source="JsNz_HG-KBg06sbnmyq4-21" target="JsNz_HG-KBg06sbnmyq4-24" edge="1">
          <mxGeometry relative="1" as="geometry">
            <mxPoint x="250" y="315" as="sourcePoint" />
          </mxGeometry>
        </mxCell>
        <mxCell id="JsNz_HG-KBg06sbnmyq4-26" value="return" style="html=1;verticalAlign=bottom;endArrow=open;dashed=1;endSize=8;curved=0;rounded=0;exitX=0;exitY=1;exitDx=0;exitDy=-5;" parent="1" source="JsNz_HG-KBg06sbnmyq4-24" target="JsNz_HG-KBg06sbnmyq4-21" edge="1">
          <mxGeometry relative="1" as="geometry">
            <mxPoint x="250" y="385" as="targetPoint" />
          </mxGeometry>
        </mxCell>
        <mxCell id="JsNz_HG-KBg06sbnmyq4-28" value="" style="html=1;verticalAlign=bottom;endArrow=block;curved=0;rounded=0;entryX=0;entryY=0;entryDx=0;entryDy=5;" parent="1" source="JsNz_HG-KBg06sbnmyq4-21" target="JsNz_HG-KBg06sbnmyq4-30" edge="1">
          <mxGeometry relative="1" as="geometry">
            <mxPoint x="139.99999999999991" y="220" as="sourcePoint" />
          </mxGeometry>
        </mxCell>
        <mxCell id="JsNz_HG-KBg06sbnmyq4-29" value="return" style="html=1;verticalAlign=bottom;endArrow=open;dashed=1;endSize=8;curved=0;rounded=0;exitX=0;exitY=1;exitDx=0;exitDy=-5;" parent="1" source="JsNz_HG-KBg06sbnmyq4-30" target="JsNz_HG-KBg06sbnmyq4-21" edge="1">
          <mxGeometry relative="1" as="geometry">
            <mxPoint x="139.99999999999991" y="310" as="targetPoint" />
          </mxGeometry>
        </mxCell>
        <mxCell id="JsNz_HG-KBg06sbnmyq4-35" value="" style="html=1;verticalAlign=bottom;endArrow=block;curved=0;rounded=0;entryX=0;entryY=0;entryDx=0;entryDy=5;" parent="1" source="JsNz_HG-KBg06sbnmyq4-27" target="JsNz_HG-KBg06sbnmyq4-34" edge="1">
          <mxGeometry relative="1" as="geometry">
            <mxPoint x="260" y="185" as="sourcePoint" />
          </mxGeometry>
        </mxCell>
        <mxCell id="JsNz_HG-KBg06sbnmyq4-36" value="return" style="html=1;verticalAlign=bottom;endArrow=open;dashed=1;endSize=8;curved=0;rounded=0;exitX=0;exitY=1;exitDx=0;exitDy=-5;" parent="1" source="JsNz_HG-KBg06sbnmyq4-34" target="JsNz_HG-KBg06sbnmyq4-27" edge="1">
          <mxGeometry relative="1" as="geometry">
            <mxPoint x="260" y="375" as="targetPoint" />
          </mxGeometry>
        </mxCell>
        <mxCell id="JsNz_HG-KBg06sbnmyq4-37" style="edgeStyle=orthogonalEdgeStyle;rounded=0;orthogonalLoop=1;jettySize=auto;html=1;curved=0;entryX=0;entryY=0.5;entryDx=0;entryDy=0;" parent="1" source="JsNz_HG-KBg06sbnmyq4-34" target="JsNz_HG-KBg06sbnmyq4-12" edge="1">
          <mxGeometry relative="1" as="geometry" />
        </mxCell>
        <mxCell id="JsNz_HG-KBg06sbnmyq4-38" value="Trigger &amp; Event" style="shape=table;startSize=30;container=1;collapsible=0;childLayout=tableLayout;fixedRows=1;rowLines=0;fontStyle=0;strokeColor=default;fontSize=16;" parent="1" vertex="1">
          <mxGeometry x="640" y="520" width="240" height="90" as="geometry" />
        </mxCell>
        <mxCell id="JsNz_HG-KBg06sbnmyq4-39" value="" style="shape=tableRow;horizontal=0;startSize=0;swimlaneHead=0;swimlaneBody=0;top=0;left=0;bottom=0;right=0;collapsible=0;dropTarget=0;fillColor=none;points=[[0,0.5],[1,0.5]];portConstraint=eastwest;strokeColor=inherit;fontSize=16;" parent="JsNz_HG-KBg06sbnmyq4-38" vertex="1">
          <mxGeometry y="30" width="240" height="30" as="geometry" />
        </mxCell>
        <mxCell id="JsNz_HG-KBg06sbnmyq4-40" value="4" style="shape=partialRectangle;html=1;whiteSpace=wrap;connectable=0;fillColor=none;top=0;left=0;bottom=0;right=0;overflow=hidden;pointerEvents=1;strokeColor=inherit;fontSize=16;" parent="JsNz_HG-KBg06sbnmyq4-39" vertex="1">
          <mxGeometry width="40" height="30" as="geometry">
            <mxRectangle width="40" height="30" as="alternateBounds" />
          </mxGeometry>
        </mxCell>
        <mxCell id="JsNz_HG-KBg06sbnmyq4-41" value="Server::AcceptEvent" style="shape=partialRectangle;html=1;whiteSpace=wrap;connectable=0;fillColor=none;top=0;left=0;bottom=0;right=0;align=left;spacingLeft=6;overflow=hidden;strokeColor=inherit;fontSize=16;" parent="JsNz_HG-KBg06sbnmyq4-39" vertex="1">
          <mxGeometry x="40" width="200" height="30" as="geometry">
            <mxRectangle width="200" height="30" as="alternateBounds" />
          </mxGeometry>
        </mxCell>
        <mxCell id="JsNz_HG-KBg06sbnmyq4-42" value="" style="shape=tableRow;horizontal=0;startSize=0;swimlaneHead=0;swimlaneBody=0;top=0;left=0;bottom=0;right=0;collapsible=0;dropTarget=0;fillColor=none;points=[[0,0.5],[1,0.5]];portConstraint=eastwest;strokeColor=inherit;fontSize=16;" parent="JsNz_HG-KBg06sbnmyq4-38" vertex="1">
          <mxGeometry y="60" width="240" height="30" as="geometry" />
        </mxCell>
        <mxCell id="JsNz_HG-KBg06sbnmyq4-43" value="1" style="shape=partialRectangle;html=1;whiteSpace=wrap;connectable=0;fillColor=none;top=0;left=0;bottom=0;right=0;overflow=hidden;strokeColor=inherit;fontSize=16;" parent="JsNz_HG-KBg06sbnmyq4-42" vertex="1">
          <mxGeometry width="40" height="30" as="geometry">
            <mxRectangle width="40" height="30" as="alternateBounds" />
          </mxGeometry>
        </mxCell>
        <mxCell id="JsNz_HG-KBg06sbnmyq4-44" value="stdout" style="shape=partialRectangle;html=1;whiteSpace=wrap;connectable=0;fillColor=none;top=0;left=0;bottom=0;right=0;align=left;spacingLeft=6;overflow=hidden;strokeColor=inherit;fontSize=16;" parent="JsNz_HG-KBg06sbnmyq4-42" vertex="1">
          <mxGeometry x="40" width="200" height="30" as="geometry">
            <mxRectangle width="200" height="30" as="alternateBounds" />
          </mxGeometry>
        </mxCell>
        <mxCell id="JsNz_HG-KBg06sbnmyq4-61" value="" style="html=1;verticalAlign=bottom;endArrow=block;curved=0;rounded=0;entryX=0;entryY=0;entryDx=0;entryDy=5;" parent="1" source="JsNz_HG-KBg06sbnmyq4-21" target="JsNz_HG-KBg06sbnmyq4-60" edge="1">
          <mxGeometry relative="1" as="geometry">
            <mxPoint x="100" y="405" as="sourcePoint" />
          </mxGeometry>
        </mxCell>
        <mxCell id="JsNz_HG-KBg06sbnmyq4-62" value="return" style="html=1;verticalAlign=bottom;endArrow=open;dashed=1;endSize=8;curved=0;rounded=0;exitX=0;exitY=1;exitDx=0;exitDy=-5;" parent="1" source="JsNz_HG-KBg06sbnmyq4-60" target="JsNz_HG-KBg06sbnmyq4-21" edge="1">
          <mxGeometry relative="1" as="geometry">
            <mxPoint x="100" y="435" as="targetPoint" />
          </mxGeometry>
        </mxCell>
        <mxCell id="JsNz_HG-KBg06sbnmyq4-65" value="" style="html=1;verticalAlign=bottom;endArrow=block;curved=0;rounded=0;entryX=0;entryY=0;entryDx=0;entryDy=5;" parent="1" source="JsNz_HG-KBg06sbnmyq4-21" target="JsNz_HG-KBg06sbnmyq4-64" edge="1">
          <mxGeometry relative="1" as="geometry">
            <mxPoint x="100" y="525" as="sourcePoint" />
          </mxGeometry>
        </mxCell>
        <mxCell id="JsNz_HG-KBg06sbnmyq4-66" value="return" style="html=1;verticalAlign=bottom;endArrow=open;dashed=1;endSize=8;curved=0;rounded=0;exitX=0;exitY=1;exitDx=0;exitDy=-5;" parent="1" source="JsNz_HG-KBg06sbnmyq4-64" target="JsNz_HG-KBg06sbnmyq4-21" edge="1">
          <mxGeometry relative="1" as="geometry">
            <mxPoint x="100" y="595" as="targetPoint" />
          </mxGeometry>
        </mxCell>
        <mxCell id="JsNz_HG-KBg06sbnmyq4-90" value="" style="html=1;verticalAlign=bottom;endArrow=block;curved=0;rounded=0;entryX=0;entryY=0;entryDx=0;entryDy=5;" parent="1" source="JsNz_HG-KBg06sbnmyq4-57" target="JsNz_HG-KBg06sbnmyq4-89" edge="1">
          <mxGeometry relative="1" as="geometry">
            <mxPoint x="60" y="605" as="sourcePoint" />
          </mxGeometry>
        </mxCell>
        <mxCell id="JsNz_HG-KBg06sbnmyq4-91" value="return" style="html=1;verticalAlign=bottom;endArrow=open;dashed=1;endSize=8;curved=0;rounded=0;exitX=0;exitY=1;exitDx=0;exitDy=-5;" parent="1" source="JsNz_HG-KBg06sbnmyq4-89" target="JsNz_HG-KBg06sbnmyq4-57" edge="1">
          <mxGeometry relative="1" as="geometry">
            <mxPoint x="60" y="715" as="targetPoint" />
          </mxGeometry>
        </mxCell>
        <mxCell id="JsNz_HG-KBg06sbnmyq4-94" value="" style="html=1;verticalAlign=bottom;endArrow=block;curved=0;rounded=0;entryX=0;entryY=0;entryDx=0;entryDy=5;" parent="1" source="JsNz_HG-KBg06sbnmyq4-27" target="JsNz_HG-KBg06sbnmyq4-93" edge="1">
          <mxGeometry relative="1" as="geometry">
            <mxPoint x="360" y="535" as="sourcePoint" />
          </mxGeometry>
        </mxCell>
        <mxCell id="JsNz_HG-KBg06sbnmyq4-95" value="return" style="html=1;verticalAlign=bottom;endArrow=open;dashed=1;endSize=8;curved=0;rounded=0;exitX=0;exitY=1;exitDx=0;exitDy=-5;" parent="1" source="JsNz_HG-KBg06sbnmyq4-93" target="JsNz_HG-KBg06sbnmyq4-27" edge="1">
          <mxGeometry relative="1" as="geometry">
            <mxPoint x="360" y="605" as="targetPoint" />
          </mxGeometry>
        </mxCell>
        <mxCell id="JsNz_HG-KBg06sbnmyq4-96" style="edgeStyle=orthogonalEdgeStyle;rounded=0;orthogonalLoop=1;jettySize=auto;html=1;curved=0;entryX=0;entryY=0.5;entryDx=0;entryDy=0;" parent="1" source="JsNz_HG-KBg06sbnmyq4-93" target="JsNz_HG-KBg06sbnmyq4-39" edge="1">
          <mxGeometry relative="1" as="geometry" />
        </mxCell>
        <mxCell id="JsNz_HG-KBg06sbnmyq4-98" value="" style="html=1;verticalAlign=bottom;endArrow=block;curved=0;rounded=0;entryX=0;entryY=0;entryDx=0;entryDy=5;" parent="1" source="JsNz_HG-KBg06sbnmyq4-57" target="JsNz_HG-KBg06sbnmyq4-97" edge="1">
          <mxGeometry relative="1" as="geometry">
            <mxPoint x="360" y="415" as="sourcePoint" />
          </mxGeometry>
        </mxCell>
        <mxCell id="JsNz_HG-KBg06sbnmyq4-99" value="return" style="html=1;verticalAlign=bottom;endArrow=open;dashed=1;endSize=8;curved=0;rounded=0;exitX=0;exitY=1;exitDx=0;exitDy=-5;" parent="1" source="JsNz_HG-KBg06sbnmyq4-97" target="JsNz_HG-KBg06sbnmyq4-57" edge="1">
          <mxGeometry relative="1" as="geometry">
            <mxPoint x="360" y="445" as="targetPoint" />
          </mxGeometry>
        </mxCell>
        <mxCell id="JsNz_HG-KBg06sbnmyq4-100" style="edgeStyle=orthogonalEdgeStyle;rounded=0;orthogonalLoop=1;jettySize=auto;html=1;curved=0;entryX=0;entryY=0.5;entryDx=0;entryDy=0;" parent="1" source="JsNz_HG-KBg06sbnmyq4-97" target="JsNz_HG-KBg06sbnmyq4-15" edge="1">
          <mxGeometry relative="1" as="geometry" />
        </mxCell>
        <mxCell id="JsNz_HG-KBg06sbnmyq4-102" value="Epoll Event" style="shape=table;startSize=30;container=1;collapsible=0;childLayout=tableLayout;fixedRows=1;rowLines=0;fontStyle=0;strokeColor=default;fontSize=16;" parent="1" vertex="1">
          <mxGeometry x="640" y="400" width="240" height="90" as="geometry" />
        </mxCell>
        <mxCell id="JsNz_HG-KBg06sbnmyq4-103" value="" style="shape=tableRow;horizontal=0;startSize=0;swimlaneHead=0;swimlaneBody=0;top=0;left=0;bottom=0;right=0;collapsible=0;dropTarget=0;fillColor=none;points=[[0,0.5],[1,0.5]];portConstraint=eastwest;strokeColor=inherit;fontSize=16;" parent="JsNz_HG-KBg06sbnmyq4-102" vertex="1">
          <mxGeometry y="30" width="240" height="30" as="geometry" />
        </mxCell>
        <mxCell id="JsNz_HG-KBg06sbnmyq4-104" value="4" style="shape=partialRectangle;html=1;whiteSpace=wrap;connectable=0;fillColor=none;top=0;left=0;bottom=0;right=0;overflow=hidden;pointerEvents=1;strokeColor=inherit;fontSize=16;" parent="JsNz_HG-KBg06sbnmyq4-103" vertex="1">
          <mxGeometry width="40" height="30" as="geometry">
            <mxRectangle width="40" height="30" as="alternateBounds" />
          </mxGeometry>
        </mxCell>
        <mxCell id="JsNz_HG-KBg06sbnmyq4-105" value="EPOLLIN" style="shape=partialRectangle;html=1;whiteSpace=wrap;connectable=0;fillColor=none;top=0;left=0;bottom=0;right=0;align=left;spacingLeft=6;overflow=hidden;strokeColor=inherit;fontSize=16;" parent="JsNz_HG-KBg06sbnmyq4-103" vertex="1">
          <mxGeometry x="40" width="200" height="30" as="geometry">
            <mxRectangle width="200" height="30" as="alternateBounds" />
          </mxGeometry>
        </mxCell>
        <mxCell id="JsNz_HG-KBg06sbnmyq4-106" value="" style="shape=tableRow;horizontal=0;startSize=0;swimlaneHead=0;swimlaneBody=0;top=0;left=0;bottom=0;right=0;collapsible=0;dropTarget=0;fillColor=none;points=[[0,0.5],[1,0.5]];portConstraint=eastwest;strokeColor=inherit;fontSize=16;" parent="JsNz_HG-KBg06sbnmyq4-102" vertex="1">
          <mxGeometry y="60" width="240" height="30" as="geometry" />
        </mxCell>
        <mxCell id="JsNz_HG-KBg06sbnmyq4-107" value="1" style="shape=partialRectangle;html=1;whiteSpace=wrap;connectable=0;fillColor=none;top=0;left=0;bottom=0;right=0;overflow=hidden;strokeColor=inherit;fontSize=16;" parent="JsNz_HG-KBg06sbnmyq4-106" vertex="1">
          <mxGeometry width="40" height="30" as="geometry">
            <mxRectangle width="40" height="30" as="alternateBounds" />
          </mxGeometry>
        </mxCell>
        <mxCell id="JsNz_HG-KBg06sbnmyq4-108" value="stdout" style="shape=partialRectangle;html=1;whiteSpace=wrap;connectable=0;fillColor=none;top=0;left=0;bottom=0;right=0;align=left;spacingLeft=6;overflow=hidden;strokeColor=inherit;fontSize=16;" parent="JsNz_HG-KBg06sbnmyq4-106" vertex="1">
          <mxGeometry x="40" width="200" height="30" as="geometry">
            <mxRectangle width="200" height="30" as="alternateBounds" />
          </mxGeometry>
        </mxCell>
        <mxCell id="JsNz_HG-KBg06sbnmyq4-109" style="edgeStyle=orthogonalEdgeStyle;rounded=0;orthogonalLoop=1;jettySize=auto;html=1;curved=0;entryX=0;entryY=0.5;entryDx=0;entryDy=0;" parent="1" source="JsNz_HG-KBg06sbnmyq4-93" target="JsNz_HG-KBg06sbnmyq4-103" edge="1">
          <mxGeometry relative="1" as="geometry" />
        </mxCell>
        <mxCell id="JsNz_HG-KBg06sbnmyq4-112" value="" style="html=1;verticalAlign=bottom;endArrow=block;curved=0;rounded=0;entryX=0;entryY=0;entryDx=0;entryDy=5;" parent="1" source="JsNz_HG-KBg06sbnmyq4-57" target="JsNz_HG-KBg06sbnmyq4-111" edge="1">
          <mxGeometry relative="1" as="geometry">
            <mxPoint x="200" y="685" as="sourcePoint" />
          </mxGeometry>
        </mxCell>
        <mxCell id="JsNz_HG-KBg06sbnmyq4-113" value="return" style="html=1;verticalAlign=bottom;endArrow=open;dashed=1;endSize=8;curved=0;rounded=0;exitX=0;exitY=1;exitDx=0;exitDy=-5;" parent="1" source="JsNz_HG-KBg06sbnmyq4-111" target="JsNz_HG-KBg06sbnmyq4-57" edge="1">
          <mxGeometry relative="1" as="geometry">
            <mxPoint x="200" y="755" as="targetPoint" />
          </mxGeometry>
        </mxCell>
        <mxCell id="JsNz_HG-KBg06sbnmyq4-116" value="return 発火したFD群" style="html=1;verticalAlign=bottom;endArrow=open;dashed=1;endSize=8;curved=0;rounded=0;exitX=0;exitY=1;exitDx=0;exitDy=-5;" parent="1" source="JsNz_HG-KBg06sbnmyq4-114" target="JsNz_HG-KBg06sbnmyq4-27" edge="1">
          <mxGeometry x="0.0009" relative="1" as="geometry">
            <mxPoint x="360.0999999999999" y="765" as="targetPoint" />
            <mxPoint as="offset" />
          </mxGeometry>
        </mxCell>
        <mxCell id="JsNz_HG-KBg06sbnmyq4-115" value="" style="html=1;verticalAlign=bottom;endArrow=block;curved=0;rounded=0;entryX=0;entryY=0;entryDx=0;entryDy=5;" parent="1" source="JsNz_HG-KBg06sbnmyq4-27" target="JsNz_HG-KBg06sbnmyq4-114" edge="1">
          <mxGeometry relative="1" as="geometry">
            <mxPoint x="360.0999999999999" y="735" as="sourcePoint" />
          </mxGeometry>
        </mxCell>
        <mxCell id="JsNz_HG-KBg06sbnmyq4-117" value="発火したFD群" style="shape=umlFrame;whiteSpace=wrap;html=1;pointerEvents=0;width=90;height=15;" parent="1" vertex="1">
          <mxGeometry x="260" y="720" width="220" height="350" as="geometry" />
        </mxCell>
        <mxCell id="JsNz_HG-KBg06sbnmyq4-122" value="if server" style="shape=umlFrame;whiteSpace=wrap;html=1;pointerEvents=0;width=90;height=15;" parent="1" vertex="1">
          <mxGeometry x="280" y="760" width="220" height="120" as="geometry" />
        </mxCell>
        <mxCell id="JsNz_HG-KBg06sbnmyq4-124" style="edgeStyle=orthogonalEdgeStyle;rounded=0;orthogonalLoop=1;jettySize=auto;html=1;curved=0;entryX=1;entryY=0.5;entryDx=0;entryDy=0;" parent="1" source="JsNz_HG-KBg06sbnmyq4-120" target="JsNz_HG-KBg06sbnmyq4-39" edge="1">
          <mxGeometry relative="1" as="geometry" />
        </mxCell>
        <mxCell id="JsNz_HG-KBg06sbnmyq4-123" style="edgeStyle=orthogonalEdgeStyle;rounded=0;orthogonalLoop=1;jettySize=auto;html=1;exitX=1;exitY=0.5;exitDx=0;exitDy=0;entryX=1;entryY=0;entryDx=0;entryDy=5;entryPerimeter=0;jumpStyle=arc;" parent="1" source="JsNz_HG-KBg06sbnmyq4-15" target="JsNz_HG-KBg06sbnmyq4-120" edge="1">
          <mxGeometry relative="1" as="geometry" />
        </mxCell>
      </root>
    </mxGraphModel>
  </diagram>
</mxfile>
